HIERARCHY
ROOT Hips
{
	OFFSET -0.001795 -0.223333 0.028219
	CHANNELS 6 Xposition Yposition Zposition Zrotation Yrotation Xrotation 
	JOINT LeftUpLeg
	{
		OFFSET 0.069520 -0.091406 -0.006815
		CHANNELS 3 Zrotation Yrotation Xrotation
		JOINT LeftLeg
		{
			OFFSET 0.034277 -0.375199 -0.004496
			CHANNELS 3 Zrotation Yrotation Xrotation
			JOINT LeftFoot
			{
				OFFSET -0.013596 -0.397961 -0.043693
				CHANNELS 3 Zrotation Yrotation Xrotation
				JOINT LeftToe
				{
					OFFSET 0.026358 -0.055791 0.119288
					CHANNELS 3 Zrotation Yrotation Xrotation
					End Site
					{
						OFFSET 0.000000 0.000000 0.000000
					}
				}
			}
		}
	}
	JOINT RightUpLeg
	{
		OFFSET -0.067670 -0.090522 -0.004320
		CHANNELS 3 Zrotation Yrotation Xrotation
		JOINT RightLeg
		{
			OFFSET -0.038290 -0.382569 -0.008850
			CHANNELS 3 Zrotation Yrotation Xrotation
			JOINT RightFoot
			{
				OFFSET 0.015774 -0.398415 -0.042312
				CHANNELS 3 Zrotation Yrotation Xrotation
				JOINT RightToe
				{
					OFFSET -0.025372 -0.048144 0.123348
					CHANNELS 3 Zrotation Yrotation Xrotation
					End Site
					{
						OFFSET 0.000000 0.000000 0.000000
					}
				}
			}
		}
	}
	JOINT Spine
	{
		OFFSET -0.002533 0.108963 -0.026696
		CHANNELS 3 Zrotation Yrotation Xrotation
		JOINT Spine1
		{
			OFFSET 0.005487 0.135180 0.001092
			CHANNELS 3 Zrotation Yrotation Xrotation
			JOINT Spine2
			{
				OFFSET 0.001457 0.052922 0.025425
				CHANNELS 3 Zrotation Yrotation Xrotation
				JOINT Neck
				{
					OFFSET -0.002778 0.213870 -0.042857
					CHANNELS 3 Zrotation Yrotation Xrotation
					JOINT Head
					{
						OFFSET 0.005152 0.064970 0.051349
						CHANNELS 3 Zrotation Yrotation Xrotation
						End Site
						{
							OFFSET 0.000000 0.000000 0.000000
						}
					}
				}
				JOINT LeftShoulder
				{
					OFFSET 0.078845 0.121749 -0.034090
					CHANNELS 3 Zrotation Yrotation Xrotation
					JOINT LeftArm
					{
						OFFSET 0.090977 0.030469 -0.008868
						CHANNELS 3 Zrotation Yrotation Xrotation
						JOINT LeftForeArm
						{
							OFFSET 0.259612 -0.012772 -0.027456
							CHANNELS 3 Zrotation Yrotation Xrotation
							JOINT LeftHand
							{
								OFFSET 0.249234 0.008986 -0.001171
								CHANNELS 3 Zrotation Yrotation Xrotation
								End Site
								{
									OFFSET 0.000000 0.000000 0.000000
								}
							}
						}
					}
				}
				JOINT RightShoulder
				{
					OFFSET -0.081759 0.118833 -0.038615
					CHANNELS 3 Zrotation Yrotation Xrotation
					JOINT RightArm
					{
						OFFSET -0.096012 0.032551 -0.009143
						CHANNELS 3 Zrotation Yrotation Xrotation
						JOINT RightForeArm
						{
							OFFSET -0.253742 -0.013329 -0.021401
							CHANNELS 3 Zrotation Yrotation Xrotation
							JOINT RightHand
							{
								OFFSET -0.255298 0.007772 -0.005559
								CHANNELS 3 Zrotation Yrotation Xrotation
								End Site
								{
									OFFSET 0.000000 0.000000 0.000000
								}
							}
						}
					}
				}
			}
		}
	}
}
MOTION
Frames: 13
Frame Time: 0.050000
0.846767 0.975298 0.283395 -2.630181 20.094488 7.071285 5.066368 -0.941990 -10.962931 -2.315946 -0.043665 5.752435 10.498692 23.024832 25.657554 0.000000 0.000000 0.000000 8.056926 2.978033 -25.404089 0.213663 -0.453659 21.515850 -4.542791 -10.961351 14.119995 0.000000 0.000000 0.000000 1.304208 -0.206513 3.009245 0.377387 -0.032333 -2.215489 -2.934367 8.480384 -2.763287 12.710876 -9.392047 -2.350169 0.000000 0.000000 0.000000 5.264372 -17.554291 5.815391 -62.333018 -2.504947 -8.604809 -9.548889 -31.468800 2.197702 0.000000 0.000000 0.000000 -3.298897 12.662631 4.630672 79.295857 2.559877 0.582399 -4.617867 30.682604 0.341819 0.000000 0.000000 0.000000 
0.846206 0.973629 0.280227 -3.824901 12.060638 7.459737 6.725121 -0.697310 -9.125815 -2.719916 0.115293 4.923719 10.597553 22.365806 24.687146 0.000000 0.000000 0.000000 8.304067 3.708690 -27.329212 0.949844 -0.132582 21.225953 -2.893174 -8.936396 12.233228 0.000000 0.000000 0.000000 2.142760 -0.342182 4.255188 0.106256 0.069790 -2.336608 -1.633647 8.297301 -2.666122 12.432149 -8.966292 -2.858986 0.000000 0.000000 0.000000 6.279525 -17.081989 5.761970 -64.877409 -1.870495 -8.935707 -10.806170 -32.267639 3.063402 0.000000 0.000000 0.000000 -3.969740 13.899153 4.856545 79.780210 4.588935 0.795569 -5.534002 33.444959 0.071012 0.000000 0.000000 0.000000 
0.844660 0.971107 0.280215 -4.120656 5.860357 7.766246 7.390147 -0.515670 -7.394957 -3.599946 0.303490 4.628283 11.244505 22.462667 23.470347 0.000000 0.000000 0.000000 6.667135 3.947299 -28.591644 2.176496 -0.125058 20.628953 -4.188695 -12.134042 11.399665 0.000000 0.000000 0.000000 2.955017 -0.480232 5.400042 -0.011578 0.102262 -2.499455 -1.064432 7.176718 -2.396128 11.617852 -7.970288 -4.062163 0.000000 0.000000 0.000000 6.254951 -16.332918 5.475334 -66.593840 -3.422299 -7.579262 -11.071679 -33.230762 3.637598 0.000000 0.000000 0.000000 -4.943902 15.089919 5.059370 80.091173 6.510185 0.933861 -5.455318 34.930591 -0.061180 0.000000 0.000000 0.000000 
0.840906 0.965415 0.284139 -4.409830 -0.531695 8.066048 7.803931 -0.324443 -4.750247 -4.796287 0.552231 3.217787 13.303863 24.374667 22.153677 0.000000 0.000000 0.000000 5.259110 4.304393 -29.979543 3.613598 -0.174729 20.476844 -4.645541 -13.805468 11.174693 0.000000 0.000000 0.000000 3.091858 -0.577240 6.812837 1.061566 -0.367432 -3.498869 -1.479471 7.012946 -1.347059 12.191452 -8.094647 -5.467768 0.000000 0.000000 0.000000 6.918399 -15.589694 5.210192 -67.588827 -5.245305 -6.074749 -13.543216 -32.975025 4.640911 0.000000 0.000000 0.000000 -4.190326 14.025617 4.763252 79.340027 6.381565 -0.407903 -3.183442 39.109020 0.613957 0.000000 0.000000 0.000000 
0.833235 0.960476 0.291453 -4.817292 -6.684420 8.007446 7.482283 -0.155908 -2.513386 -4.574121 0.606384 2.984867 16.132495 27.277189 23.142265 0.000000 0.000000 0.000000 4.173670 4.751737 -31.205927 4.997180 -0.215924 19.959085 -6.025417 -17.272427 12.181137 0.000000 0.000000 0.000000 3.382934 -0.618473 7.417595 1.327039 -0.542123 -2.912687 -1.278471 6.336428 -1.571556 12.321972 -7.842753 -7.119010 0.000000 0.000000 0.000000 7.021438 -15.829039 5.161453 -68.230856 -6.970495 -4.180779 -12.142232 -33.882256 4.658491 0.000000 0.000000 0.000000 -4.449025 14.167567 4.771716 79.874551 6.571611 -1.524668 -1.894001 42.797380 0.862328 0.000000 0.000000 0.000000 
0.820542 0.954491 0.302223 -4.780709 -12.109245 8.338614 6.601324 -0.001126 -0.204745 -3.931203 0.558445 1.756916 19.073826 30.152062 25.268574 0.000000 0.000000 0.000000 1.839707 4.839168 -32.219621 5.781354 -0.153346 18.833573 -11.422751 -26.932686 14.934643 0.000000 0.000000 0.000000 3.797536 -0.671212 8.114172 1.046128 -0.450884 -3.143254 -1.392359 4.542402 0.098171 11.390607 -6.941361 -9.429280 0.000000 0.000000 0.000000 7.855846 -15.439044 4.853509 -68.952504 -10.127422 -1.252586 -9.228377 -34.340400 4.199661 0.000000 0.000000 0.000000 -3.866498 12.744446 4.334897 79.363624 5.625198 -3.943299 1.308123 46.247988 1.795899 0.000000 0.000000 0.000000 
0.801357 0.950229 0.316286 -4.669924 -17.098059 9.100335 5.566023 0.161069 1.904373 -2.817826 0.419204 0.423722 21.665287 32.196029 28.500216 0.000000 0.000000 0.000000 1.602445 5.196832 -32.204897 6.017292 -0.069918 16.202365 -13.721647 -30.497444 18.567249 0.000000 0.000000 0.000000 3.709086 -0.647230 8.208186 2.368072 -1.021326 -2.977086 -3.064383 4.140527 0.344525 10.865373 -6.415947 -11.153179 0.000000 0.000000 0.000000 8.223188 -15.776668 4.826875 -67.929815 -12.057867 0.564872 -6.092773 -35.103713 3.481146 0.000000 0.000000 0.000000 -1.489017 11.603080 3.923849 78.231590 3.108882 -6.473401 3.971726 46.963168 2.588262 0.000000 0.000000 0.000000 
0.774316 0.945874 0.334857 -4.891805 -21.550898 9.883090 4.852235 0.337473 3.669047 -1.809825 0.301379 2.441864 21.502933 32.482772 26.471011 0.000000 0.000000 0.000000 3.238814 6.126294 -32.834176 5.917966 0.122051 15.920594 -14.558425 -31.610913 23.910332 0.000000 0.000000 0.000000 3.591361 -0.598147 7.821584 2.260751 -0.950178 -1.867888 -2.573140 2.573391 0.029942 9.710594 -5.709992 -12.202452 0.000000 0.000000 0.000000 8.579026 -15.068004 4.464968 -69.561594 -13.442238 2.658297 -1.911434 -36.152094 2.469048 0.000000 0.000000 0.000000 -1.020633 11.262339 3.699649 76.207166 1.013402 -8.679169 9.995153 44.795596 4.267060 0.000000 0.000000 0.000000 
0.738410 0.941923 0.358903 -4.655957 -26.833633 10.743045 5.519237 0.505560 4.696885 -2.984556 0.720518 5.880517 20.115275 29.870501 28.134551 0.000000 0.000000 0.000000 4.876926 6.617606 -31.795503 6.190554 0.319050 16.115850 -12.869296 -30.203423 22.073812 0.000000 0.000000 0.000000 3.201278 -0.499350 6.715870 1.790556 -0.727091 -1.976895 -3.098291 2.156464 0.573739 9.317431 -5.708861 -12.004127 0.000000 0.000000 0.000000 9.416582 -14.220644 3.966896 -70.280301 -12.479669 3.046704 -0.715711 -37.866836 2.428307 0.000000 0.000000 0.000000 -0.360776 10.967311 3.453945 76.199085 -1.159211 -11.043867 11.524820 40.842790 4.064751 0.000000 0.000000 0.000000 
0.695463 0.938469 0.387002 -5.252852 -31.742244 11.535186 8.584613 0.763152 5.365014 -6.172880 2.210862 10.878683 17.379393 24.996062 31.949687 0.000000 0.000000 0.000000 7.404688 6.859749 -29.787213 6.350563 0.670197 17.776311 -10.101567 -26.877931 17.290160 0.000000 0.000000 0.000000 3.250607 -0.431830 5.245177 2.053704 -0.656751 -0.070698 -3.563405 2.862853 -0.835193 8.454925 -5.075073 -13.120975 0.000000 0.000000 0.000000 8.855843 -13.591313 3.826650 -70.674949 -10.953191 2.497007 0.390285 -39.738543 2.297667 0.000000 0.000000 0.000000 0.191250 10.616625 3.221286 74.060846 -1.889279 -11.141008 11.981130 34.814876 3.469560 0.000000 0.000000 0.000000 
0.649724 0.936524 0.416329 -5.353514 -38.170643 11.577747 10.969947 1.053551 1.572543 -7.287819 6.290951 24.998921 10.662170 16.047381 37.303562 0.000000 0.000000 0.000000 10.159854 6.584077 -26.526955 5.050369 1.578810 20.587788 -6.464323 -20.164818 10.066807 0.000000 0.000000 0.000000 3.542777 -0.425953 5.097027 0.204019 -0.050204 -2.405681 -2.522624 3.402027 1.235928 7.458608 -4.771129 -14.140413 0.000000 0.000000 0.000000 7.318162 -12.573589 3.608103 -70.995437 -7.297585 0.814789 0.752800 -41.982698 2.766146 0.000000 0.000000 0.000000 -2.357931 11.428042 3.783875 76.334980 -1.674806 -13.236732 14.164244 30.901634 3.453137 0.000000 0.000000 0.000000 
0.605914 0.934446 0.445960 -5.910940 -44.096558 10.819848 11.874154 1.654553 -5.001279 -1.070887 10.507648 42.969973 1.344128 7.039298 39.887498 0.000000 0.000000 0.000000 13.263700 5.293411 -21.064788 2.492310 2.569308 21.693103 -4.433377 -13.478387 4.525080 0.000000 0.000000 0.000000 4.371475 -0.518253 7.067280 -0.435025 0.128121 -3.206413 -3.403818 6.783661 1.484169 9.128458 -5.644996 -15.448827 0.000000 0.000000 0.000000 7.324668 -13.187237 3.774835 -72.157792 -6.680826 0.271929 0.616535 -41.653118 2.749034 0.000000 0.000000 0.000000 -1.110308 10.508466 3.268880 74.894589 -2.007876 -12.898973 13.968185 29.633458 3.319609 0.000000 0.000000 0.000000 
0.563123 0.936780 0.477256 -5.163644 -49.753423 9.104659 9.831509 2.264064 -13.007624 7.550869 12.141883 56.724388 -2.070547 4.138133 38.165160 0.000000 0.000000 0.000000 15.503793 3.318224 -14.412346 -1.210007 2.942524 19.263394 -4.340918 -11.247541 2.839769 0.000000 0.000000 0.000000 4.288854 -0.478181 7.857591 -2.430477 0.951878 -3.051518 -2.709699 8.951273 2.395293 9.298809 -5.949172 -15.167656 0.000000 0.000000 0.000000 7.308448 -12.243701 3.396831 -73.449510 -6.056084 0.219613 -1.105285 -40.768502 3.373858 0.000000 0.000000 0.000000 -1.885447 11.160329 3.564798 74.630462 0.921808 -11.430668 13.930072 27.964885 3.108863 0.000000 0.000000 0.000000 
